<svg xmlns="http://www.w3.org/2000/svg" width="1640" height="704" viewBox="0 0 1640 704" role="img" aria-labelledby="title desc">
<title id="title">한 ALU 명령의 기본 lifecycle</title><desc id="desc">각 cell은 해당 cycle의 주 동작이며 실제 stall이 있으면 뒤 단계가 늘어난다.</desc>
<style>
 .bg{fill:#f8fafc} .grid{fill:#fff;stroke:#64748b;stroke-width:2} .active{fill:#dbeafe;stroke:#2563eb;stroke-width:2.5}
 text{font-family:'Noto Sans KR','Malgun Gothic',Arial,sans-serif;fill:#0f172a} .title{font-size:32px;font-weight:700} .caption{font-size:17px;fill:#475569}
 .head{font-size:18px;font-weight:700} .label{font-size:18px;font-weight:700} .cell{font-size:15px}
 @media(prefers-color-scheme:dark){.bg{fill:#0f172a} .grid{fill:#111827;stroke:#94a3b8} .active{fill:#172554;stroke:#60a5fa} text{fill:#e5e7eb} .caption{fill:#cbd5e1}}
</style><rect width="1640" height="704" class="bg"/>
<text x="40" y="48" class="title">한 ALU 명령의 기본 lifecycle</text><text x="40" y="82" class="caption">각 cell은 해당 cycle의 주 동작이며 실제 stall이 있으면 뒤 단계가 늘어난다.</text><text x="344.0" y="130" text-anchor="middle" class="head">C0</text><text x="572.0" y="130" text-anchor="middle" class="head">C1</text><text x="800.0" y="130" text-anchor="middle" class="head">C2</text><text x="1028.0" y="130" text-anchor="middle" class="head">C3</text><text x="1256.0" y="130" text-anchor="middle" class="head">C4</text><text x="1484.0" y="130" text-anchor="middle" class="head">C5</text><text x="40" y="193" class="label">Frontend</text><rect x="230" y="150" width="222" height="66" rx="5" class="active"/><text text-anchor="middle" x="341" y="181" class="cell"><tspan x="341" dy="0">fetch/align</tspan></text><rect x="458" y="150" width="222" height="66" rx="5" class="active"/><text text-anchor="middle" x="569" y="181" class="cell"><tspan x="569" dy="0">decode 전달</tspan></text><rect x="686" y="150" width="222" height="66" rx="5" class="grid"/><text text-anchor="middle" x="797" y="181" class="cell"><tspan x="797" dy="0">—</tspan></text><rect x="914" y="150" width="222" height="66" rx="5" class="grid"/><text text-anchor="middle" x="1025" y="181" class="cell"><tspan x="1025" dy="0">—</tspan></text><rect x="1142" y="150" width="222" height="66" rx="5" class="grid"/><text text-anchor="middle" x="1253" y="181" class="cell"><tspan x="1253" dy="0">—</tspan></text><rect x="1370" y="150" width="222" height="66" rx="5" class="grid"/><text text-anchor="middle" x="1481" y="181" class="cell"><tspan x="1481" dy="0">—</tspan></text><text x="40" y="267" class="label">Rename/ROB</text><rect x="230" y="224" width="222" height="66" rx="5" class="grid"/><text text-anchor="middle" x="341" y="255" class="cell"><tspan x="341" dy="0">—</tspan></text><rect x="458" y="224" width="222" height="66" rx="5" class="active"/><text text-anchor="middle" x="569" y="255" class="cell"><tspan x="569" dy="0">tag+ROB allocate</tspan></text><rect x="686" y="224" width="222" height="66" rx="5" class="active"/><text text-anchor="middle" x="797" y="255" class="cell"><tspan x="797" dy="0">ROB wait</tspan></text><rect x="914" y="224" width="222" height="66" rx="5" class="active"/><text text-anchor="middle" x="1025" y="255" class="cell"><tspan x="1025" dy="0">ROB wait</tspan></text><rect x="1142" y="224" width="222" height="66" rx="5" class="active"/><text text-anchor="middle" x="1253" y="255" class="cell"><tspan x="1253" dy="0">complete</tspan></text><rect x="1370" y="224" width="222" height="66" rx="5" class="active"/><text text-anchor="middle" x="1481" y="255" class="cell"><tspan x="1481" dy="0">retire</tspan></text><text x="40" y="341" class="label">Issue</text><rect x="230" y="298" width="222" height="66" rx="5" class="grid"/><text text-anchor="middle" x="341" y="329" class="cell"><tspan x="341" dy="0">—</tspan></text><rect x="458" y="298" width="222" height="66" rx="5" class="active"/><text text-anchor="middle" x="569" y="329" class="cell"><tspan x="569" dy="0">IQ insert</tspan></text><rect x="686" y="298" width="222" height="66" rx="5" class="active"/><text text-anchor="middle" x="797" y="329" class="cell"><tspan x="797" dy="0">oldest-ready grant</tspan></text><rect x="914" y="298" width="222" height="66" rx="5" class="grid"/><text text-anchor="middle" x="1025" y="329" class="cell"><tspan x="1025" dy="0">—</tspan></text><rect x="1142" y="298" width="222" height="66" rx="5" class="grid"/><text text-anchor="middle" x="1253" y="329" class="cell"><tspan x="1253" dy="0">—</tspan></text><rect x="1370" y="298" width="222" height="66" rx="5" class="grid"/><text text-anchor="middle" x="1481" y="329" class="cell"><tspan x="1481" dy="0">—</tspan></text><text x="40" y="415" class="label">Execute</text><rect x="230" y="372" width="222" height="66" rx="5" class="grid"/><text text-anchor="middle" x="341" y="403" class="cell"><tspan x="341" dy="0">—</tspan></text><rect x="458" y="372" width="222" height="66" rx="5" class="grid"/><text text-anchor="middle" x="569" y="403" class="cell"><tspan x="569" dy="0">—</tspan></text><rect x="686" y="372" width="222" height="66" rx="5" class="active"/><text text-anchor="middle" x="797" y="403" class="cell"><tspan x="797" dy="0">ALU calculate</tspan></text><rect x="914" y="372" width="222" height="66" rx="5" class="active"/><text text-anchor="middle" x="1025" y="403" class="cell"><tspan x="1025" dy="0">result buffer</tspan></text><rect x="1142" y="372" width="222" height="66" rx="5" class="grid"/><text text-anchor="middle" x="1253" y="403" class="cell"><tspan x="1253" dy="0">—</tspan></text><rect x="1370" y="372" width="222" height="66" rx="5" class="grid"/><text text-anchor="middle" x="1481" y="403" class="cell"><tspan x="1481" dy="0">—</tspan></text><text x="40" y="489" class="label">WB/PRF</text><rect x="230" y="446" width="222" height="66" rx="5" class="grid"/><text text-anchor="middle" x="341" y="477" class="cell"><tspan x="341" dy="0">—</tspan></text><rect x="458" y="446" width="222" height="66" rx="5" class="grid"/><text text-anchor="middle" x="569" y="477" class="cell"><tspan x="569" dy="0">—</tspan></text><rect x="686" y="446" width="222" height="66" rx="5" class="grid"/><text text-anchor="middle" x="797" y="477" class="cell"><tspan x="797" dy="0">—</tspan></text><rect x="914" y="446" width="222" height="66" rx="5" class="active"/><text text-anchor="middle" x="1025" y="477" class="cell"><tspan x="1025" dy="0">WB grant</tspan></text><rect x="1142" y="446" width="222" height="66" rx="5" class="active"/><text text-anchor="middle" x="1253" y="477" class="cell"><tspan x="1253" dy="0">PRF ready</tspan></text><rect x="1370" y="446" width="222" height="66" rx="5" class="grid"/><text text-anchor="middle" x="1481" y="477" class="cell"><tspan x="1481" dy="0">—</tspan></text><text x="40" y="563" class="label">Commit</text><rect x="230" y="520" width="222" height="66" rx="5" class="grid"/><text text-anchor="middle" x="341" y="551" class="cell"><tspan x="341" dy="0">—</tspan></text><rect x="458" y="520" width="222" height="66" rx="5" class="grid"/><text text-anchor="middle" x="569" y="551" class="cell"><tspan x="569" dy="0">—</tspan></text><rect x="686" y="520" width="222" height="66" rx="5" class="grid"/><text text-anchor="middle" x="797" y="551" class="cell"><tspan x="797" dy="0">—</tspan></text><rect x="914" y="520" width="222" height="66" rx="5" class="grid"/><text text-anchor="middle" x="1025" y="551" class="cell"><tspan x="1025" dy="0">—</tspan></text><rect x="1142" y="520" width="222" height="66" rx="5" class="active"/><text text-anchor="middle" x="1253" y="551" class="cell"><tspan x="1253" dy="0">head check</tspan></text><rect x="1370" y="520" width="222" height="66" rx="5" class="active"/><text text-anchor="middle" x="1481" y="551" class="cell"><tspan x="1481" dy="0">RRAT+trace</tspan></text></svg>
